<svg width="16" height="13" viewBox="0 0 16 13" fill="none" xmlns="http://www.w3.org/2000/svg">
  <path d="M14.773 5.34088C13.9873 4.33346 12.9695 3.50016 11.8298 2.93114C10.6664 2.35027 9.41479 2.04889 8.10823 2.03309C8.07224 2.0321 7.92776 2.0321 7.89177 2.03309C6.58524 2.04892 5.33361 2.35027 4.17019 2.93114C3.03047 3.50016 2.01277 4.33343 1.22702 5.34088C0.924326 5.72897 0.924326 6.27106 1.22702 6.65915C2.01274 7.66657 3.03047 8.49987 4.17019 9.06889C5.33361 9.64976 6.58521 9.95114 7.89177 9.96694C7.92776 9.96793 8.07224 9.96793 8.10823 9.96694C9.41476 9.95111 10.6664 9.64976 11.8298 9.06889C12.9695 8.49987 13.9873 7.6666 14.773 6.65915C15.0757 6.271 15.0757 5.72897 14.773 5.34088ZM4.42462 8.55934C3.3604 8.028 2.40999 7.2498 1.67611 6.30888C1.53428 6.12701 1.53428 5.87302 1.67611 5.69115C2.40996 4.75023 3.36038 3.97203 4.42462 3.44069C4.72688 3.2898 5.03553 3.15932 5.3499 3.04885C4.54113 3.77586 4.03158 4.82947 4.03158 6C4.03158 7.17058 4.54116 8.22427 5.35001 8.95126C5.03564 8.84079 4.72691 8.71025 4.42462 8.55934ZM8.00003 9.39891C6.12584 9.39891 4.6011 7.87417 4.6011 5.99997C4.6011 4.12578 6.12584 2.60107 8.00003 2.60107C9.87422 2.60107 11.399 4.12581 11.399 6C11.399 7.87419 9.87422 9.39891 8.00003 9.39891ZM14.3239 6.30885C13.5901 7.24977 12.6397 8.02797 11.5754 8.55932C11.2735 8.71003 10.9651 8.83994 10.6511 8.9503C11.4593 8.22332 11.9685 7.17004 11.9685 5.99997C11.9685 4.82928 11.4588 3.77554 10.6499 3.04852C10.9643 3.15902 11.2731 3.28967 11.5755 3.44063C12.6397 3.97197 13.5901 4.75018 14.324 5.6911C14.4658 5.87299 14.4658 6.12699 14.3239 6.30885Z" fill="#237BEF" stroke="#237BEF" stroke-width="0.5"/>
  <path d="M8.00045 4.54541C7.1984 4.54541 6.5459 5.19791 6.5459 5.99996C6.5459 6.802 7.1984 7.45451 8.00045 7.45451C8.80249 7.45451 9.45499 6.802 9.45499 5.99996C9.45502 5.19791 8.80252 4.54541 8.00045 4.54541ZM8.00045 6.88502C7.51244 6.88502 7.11539 6.48802 7.11539 5.99996C7.11539 5.51193 7.51239 5.11492 8.00045 5.11492C8.48845 5.11492 8.88548 5.51193 8.88548 5.99996C8.88551 6.48802 8.48845 6.88502 8.00045 6.88502Z" fill="#237BEF" stroke="#237BEF" stroke-width="0.5"/>
  <line x1="14.3536" y1="0.353553" x2="2.35355" y2="12.3536" stroke="#237BEF"/>
</svg>
