<svg width="60" height="58" viewBox="0 0 60 58" fill="none" xmlns="http://www.w3.org/2000/svg">
  <path d="M27.8437 1.68111C20.1469 2.22486 12.9984 5.77283 8.025 11.5094C2.76094 17.5858 0.46406 25.5789 1.71562 33.4406C2.14687 36.1549 2.99531 38.7784 4.24219 41.2661C7.20937 47.1884 12.3562 51.9463 18.6328 54.5699C27.9891 58.4713 38.9062 57.2252 47.0391 51.3164C48.1406 50.5189 48.9891 49.7939 50.1094 48.7109C51.6234 47.2519 52.6641 46.033 53.7422 44.4516C57.9516 38.2936 59.4328 30.8352 57.8906 23.5806C56.1328 15.3292 50.4422 8.2197 42.5859 4.46783C39.3047 2.90001 35.8922 1.98923 32.175 1.69923C31.2328 1.62673 28.7859 1.61767 27.8437 1.68111ZM32.0016 6.00392C36.5625 6.36642 41.0156 8.04298 44.6719 10.7799C51.6937 16.0316 55.1578 24.5639 53.7141 33.0328C52.7109 38.9144 49.3547 44.2477 44.3906 47.8545C43.1391 48.7608 42.0281 49.4178 40.5703 50.1156C37.8422 51.4116 35.2078 52.1275 32.0391 52.4356C31.1109 52.5217 28.575 52.5081 27.5859 52.4084C23.0719 51.9553 19.0359 50.4328 15.4453 47.8274C14.4562 47.1114 13.7906 46.545 12.8672 45.6524C7.34531 40.3055 4.87969 32.8199 6.16875 25.3297C6.79687 21.682 8.325 18.2428 10.6594 15.225C11.9391 13.5666 13.7391 11.8356 15.4828 10.5714C20.2594 7.11408 25.9922 5.52814 32.0016 6.00392Z" fill="white"/>
  <path d="M28.7578 9.13952C25.1156 9.35703 21.6187 10.4672 18.6094 12.3612C15.0094 14.6269 12.1922 17.9347 10.65 21.7092C9.32343 24.9536 8.86406 28.3837 9.30937 31.7414C9.52968 33.418 9.94218 34.9495 10.5984 36.5672C11.1703 37.9719 11.7656 39.073 12.6797 40.3961C15.2625 44.1434 19.0219 46.8894 23.5031 48.3077C27.2203 49.4858 31.3078 49.6127 35.0859 48.6656C43.2188 46.6311 49.2656 40.1423 50.4844 32.1492C50.6625 30.9983 50.6953 30.527 50.6906 29.1586C50.6906 28.1617 50.6672 27.618 50.6063 27.1195C50.3063 24.6092 49.6735 22.5112 48.5578 20.3227C45.2813 13.8747 38.6953 9.6289 31.2422 9.15312C30.5953 9.11234 29.3203 9.10327 28.7578 9.13952ZM30.2906 16.7702C30.8906 16.9242 31.4016 17.0602 31.4203 17.0783C31.4391 17.1009 31.2422 17.903 30.9797 18.8681C30.7172 19.8333 30.5109 20.6262 30.5203 20.6353C30.5484 20.6534 32.3203 21.0658 32.3297 21.0522C32.3344 21.0477 32.55 20.2592 32.8125 19.3031C33.075 18.3425 33.2953 17.5541 33.3 17.5495C33.3188 17.5314 35.5078 18.0933 35.5453 18.125C35.5641 18.1431 35.3719 18.927 35.1141 19.8741C34.8563 20.8166 34.6406 21.6277 34.6313 21.673C34.6219 21.7364 34.7203 21.7908 35.1328 21.9494C37.5422 22.8647 38.8734 24.07 39.1453 25.5834C39.2297 26.0456 39.1734 26.893 39.0281 27.4322C38.6531 28.8278 37.7953 29.6887 36.3891 30.092L36.1922 30.1464L36.4547 30.3005C37.3125 30.7989 37.9031 31.3653 38.2266 32.0042C38.5266 32.5978 38.5969 32.8969 38.5969 33.5766C38.5969 35.3664 37.5609 37.3239 36.1969 38.1078C35.3953 38.5655 34.6875 38.7377 33.4594 38.7739C32.4938 38.8011 31.9219 38.7603 30.8063 38.5791C30.4078 38.5156 30.0797 38.4703 30.0703 38.4794C30.0609 38.4884 29.8359 39.2905 29.5734 40.2602C29.3109 41.2344 29.0766 42.0455 29.0578 42.0681C29.0297 42.0953 26.8359 41.5833 26.7797 41.5334C26.775 41.5289 26.9906 40.7223 27.2578 39.7391C27.525 38.7558 27.7313 37.9356 27.7125 37.9175C27.6938 37.8994 27.4688 37.8359 27.2109 37.7725C26.9531 37.7091 26.5641 37.6048 26.3438 37.5459C26.1281 37.4825 25.9453 37.4372 25.9359 37.4417C25.9313 37.4508 25.7109 38.2483 25.4484 39.218C25.1859 40.1922 24.9563 41.0033 24.9375 41.0214C24.9 41.0622 22.7344 40.532 22.6828 40.4731C22.6687 40.455 22.875 39.6439 23.1422 38.6742C23.4047 37.7 23.625 36.8844 23.625 36.8572C23.625 36.7983 23.6109 36.7938 20.9531 36.1141C19.8187 35.8241 19.0594 35.6066 19.0641 35.5748C19.0734 35.5477 19.3312 34.9767 19.6406 34.3106L20.2078 33.0917L21.0375 33.3138C21.9984 33.572 22.3078 33.5992 22.5609 33.4452C22.6547 33.3908 22.7719 33.2775 22.8281 33.1914C22.9453 33.0056 25.6406 23.132 25.6406 22.8828C25.6406 22.4297 25.2891 21.9856 24.7922 21.8089C24.6516 21.7545 24.1734 21.6277 23.7281 21.5189C23.2828 21.4102 22.9266 21.2969 22.9359 21.2742C22.9453 21.247 23.0859 20.7259 23.25 20.1052C23.4703 19.2895 23.5688 18.9859 23.6203 18.9859C23.6578 18.9859 24.3328 19.1491 25.1203 19.353C27.5625 19.9783 28.1438 20.1187 28.1766 20.0825C28.1953 20.0644 28.425 19.2487 28.6875 18.27C28.9547 17.2958 29.1797 16.4937 29.1844 16.4937C29.1938 16.4937 29.6906 16.6161 30.2906 16.7702Z" fill="white"/>
  <path d="M29.8313 23.3087C29.8219 23.3359 29.5594 24.2966 29.25 25.443C28.9406 26.5894 28.6734 27.5591 28.6641 27.5953C28.6219 27.7267 30.5531 28.1798 31.5469 28.2795C33.3 28.4472 34.3266 27.9216 34.6219 26.7027C34.9312 25.4294 33.9937 24.437 31.8562 23.7664C30.975 23.4945 29.8594 23.2362 29.8313 23.3087Z" fill="white"/>
  <path d="M28.0313 29.9153C28.0313 29.9244 27.7359 31.0074 27.375 32.3305C27.0188 33.6491 26.7375 34.7457 26.7563 34.7593C26.8031 34.8046 28.1156 35.1444 28.7438 35.2758C29.6719 35.4661 30.2297 35.5341 30.9609 35.5386C32.5312 35.5522 33.375 35.1172 33.7547 34.0932C33.8953 33.7216 33.9 33.06 33.7641 32.7338C33.4031 31.8502 32.4328 31.166 30.75 30.6086C30.1031 30.3957 28.0313 29.87 28.0313 29.9153Z" fill="white"/>
</svg>
